<svg xmlns="http://www.w3.org/2000/svg" xmlns:xlink="http://www.w3.org/1999/xlink" xmlns:lucid="lucid" width="638.43" height="559.69"><g transform="translate(20 20)" lucid:page-tab-id="0_0"><path d="M0 0h598.43v519.7H0z" fill="#fff"/><path d="M350.66 141.6l1.02 1.25 1.4 1.93 1.22 1.84 1.04 1.77.9 1.7.78 1.7.66 1.66.57 1.65.47 1.66.4 1.65.3 1.7.22 1.7.14 1.78.06 1.83-.05 1.94-.15 2.04-.27 2.2-.4 2.37-.6 2.63-.85 3-1.17 3.48-1.7 4.32-2.67 5.92-7.45 14.25-8.34 15.88" stroke="#5e5e5e" stroke-width="2" fill="none"/><path d="M351.45 141l-1.55 1.25-.65-.8.5-.37 1.04-.9z" fill="#5e5e5e"/><path d="M330.02 237.37l1.56-14.92 8.47 3.77z" stroke="#5e5e5e" stroke-width="2" fill="#5e5e5e"/><use xlink:href="#a" transform="matrix(1,0,0,1,358.1550316004821,187.97568327629273) translate(0 14.222222222222223)"/><path d="M377.95 314.96c0 43.5-35.25 78.74-78.74 78.74-43.47 0-78.73-35.25-78.73-78.74 0-43.5 35.26-78.74 78.74-78.74 43.5 0 78.75 35.25 78.75 78.74z" stroke="#5e5e5e" stroke-width="3" fill="#fff"/><use xlink:href="#b" transform="matrix(1,0,0,1,225.47244094488207,241.22047244094483) translate(54.24691358024691 77.90277777777777)"/><path d="M377.95 78.74c0 43.5-35.25 78.74-78.74 78.74-43.47 0-78.73-35.25-78.73-78.74C220.47 35.24 255.73 0 299.2 0c43.5 0 78.75 35.25 78.75 78.74z" stroke="#5e5e5e" stroke-width="3" fill="#fff"/><use xlink:href="#c" transform="matrix(1,0,0,1,225.47244094488207,5) translate(29.586419753086425 77.90277777777777)"/><use xlink:href="#d" transform="matrix(1,0,0,1,225.47244094488207,5) translate(106.0679012345679 77.90277777777777)"/><path d="M598.43 440.94c0 43.5-35.26 78.75-78.74 78.75-43.5 0-78.76-35.27-78.76-78.76 0-43.48 35.26-78.74 78.75-78.74 43.47 0 78.73 35.26 78.73 78.74z" stroke="#5e5e5e" stroke-width="3" fill="#fff"/><use xlink:href="#c" transform="matrix(1,0,0,1,445.94488188976396,367.2047244094489) translate(29.586419753086425 77.90277777777777)"/><use xlink:href="#e" transform="matrix(1,0,0,1,445.94488188976396,367.2047244094489) translate(106.0679012345679 77.90277777777777)"/><path d="M157.48 440.94c0 43.5-35.25 78.75-78.74 78.75C35.24 519.7 0 484.42 0 440.93c0-43.48 35.25-78.74 78.74-78.74 43.5 0 78.74 35.26 78.74 78.74z" stroke="#5e5e5e" stroke-width="3" fill="#fff"/><use xlink:href="#c" transform="matrix(1,0,0,1,5,367.2047244094489) translate(27.765432098765437 77.90277777777777)"/><use xlink:href="#f" transform="matrix(1,0,0,1,5,367.2047244094489) translate(104.24691358024691 77.90277777777777)"/><path d="M268.6 239.72l-3.44-7.55-20.66-40.43-1.9-4.8-1.32-3.9-.94-3.3-.67-2.93-.48-2.64-.3-2.43-.2-2.28-.04-2.16.05-2.07.16-2 .24-1.92.34-1.9.43-1.87.1-.38" stroke="#5e5e5e" stroke-width="2" fill="none"/><path d="M269.94 240.25l-1.85.77-.42-.9 1.82-.83z" fill="#5e5e5e"/><path d="M246.93 143.7l-2.43 14.8-8.24-4.26z" stroke="#5e5e5e" stroke-width="2" fill="#5e5e5e"/><use xlink:href="#g" transform="matrix(1,0,0,1,68.2644465289367,163.99604089640403) translate(0.009999999999990905 14.222222222222223)"/><use xlink:href="#h" transform="matrix(1,0,0,1,68.2644465289367,163.99604089640403) translate(67.96061728395063 14.222222222222223)"/><use xlink:href="#i" transform="matrix(1,0,0,1,68.2644465289367,163.99604089640403) translate(82.77543209876544 14.222222222222223)"/><use xlink:href="#j" transform="matrix(1,0,0,1,68.2644465289367,163.99604089640403) translate(93.39271604938271 35.55555555555556)"/><path d="M438.44 440.92l-4.53-.13-5-.42-4.62-.64-4.3-.83-4.04-1.02-3.87-1.2-3.75-1.4-3.68-1.63-3.65-1.85-3.7-2.13-3.8-2.48-3.96-2.93-4.28-3.53-4.8-4.43-5.76-5.92-8.06-9.3-6.54-8.4" stroke="#5e5e5e" stroke-width="2" fill="none"/><path d="M439.48 439.95l-.04 1 .03 1-1.08-.03.04-2z" fill="#5e5e5e"/><path d="M350.72 380.62l12.42 8.4-7.32 5.7z" stroke="#5e5e5e" stroke-width="2" fill="#5e5e5e"/><use xlink:href="#a" transform="matrix(1,0,0,1,347.2326535071428,425.3210203980815) translate(0 14.222222222222223)"/><path d="M159.98 440.9l2.76-.07 3.4-.3 3.08-.5 2.87-.62 2.7-.76 2.57-.9 2.5-1.06 2.43-1.2 2.42-1.4 2.44-1.63 2.52-1.9 2.66-2.3 2.9-2.82 3.36-3.7 4.38-5.46 24.34-33.72" stroke="#5e5e5e" stroke-width="2" fill="none"/><path d="M160.04 441.9l-1.1.05.04-1-.02-1 1.02-.04z" fill="#5e5e5e"/><path d="M237.87 371.57l-6.54 13.5-6.68-6.43z" stroke="#5e5e5e" stroke-width="2" fill="#5e5e5e"/><use xlink:href="#a" transform="matrix(1,0,0,1,201.3593117650422,419.94014212555834) translate(0 14.222222222222223)"/><path d="M220.16 333.73l-4.36 1.03-4.74 1.45-4.34 1.65-4.06 1.84-3.9 2.07-3.88 2.4-4 2.84-4.4 3.6-5.53 5.12-24.28 24.8" stroke="#5e5e5e" stroke-width="2" fill="none"/><path d="M221.22 333.9l.16.57-1 .24-.47-1.94 1.03-.24z" fill="#5e5e5e"/><path d="M145.44 390.83l7.38-13.06 6.26 6.83z" stroke="#5e5e5e" stroke-width="2" fill="#5e5e5e"/><g><use xlink:href="#g" transform="matrix(1,0,0,1,29.478929270448972,310.7163622851039) translate(0 14.222222222222223)"/><use xlink:href="#k" transform="matrix(1,0,0,1,29.478929270448972,310.7163622851039) translate(67.95061728395063 14.222222222222223)"/><use xlink:href="#i" transform="matrix(1,0,0,1,29.478929270448972,310.7163622851039) translate(85.67901234567904 14.222222222222223)"/><use xlink:href="#j" transform="matrix(1,0,0,1,29.478929270448972,310.7163622851039) translate(0 35.55555555555556)"/></g><path d="M375.6 342.6l14.26 5.63 11.33 5.3 9.97 5.45 10.53 6.64 16.9 12.25 3.17 2.48" stroke="#5e5e5e" stroke-width="2" fill="none"/><path d="M375.98 341.67l-.73 1.86-.93-.36.68-1.88z" fill="#5e5e5e"/><path d="M453.8 389.74l-14.1-5.12 5.7-7.3z" stroke="#5e5e5e" stroke-width="2" fill="#5e5e5e"/><g><use xlink:href="#g" transform="matrix(1,0,0,1,396.2226143476024,319.1429859315972) translate(0.009999999999990905 14.222222222222223)"/><use xlink:href="#l" transform="matrix(1,0,0,1,396.2226143476024,319.1429859315972) translate(67.96061728395063 14.222222222222223)"/><use xlink:href="#i" transform="matrix(1,0,0,1,396.2226143476024,319.1429859315972) translate(82.77543209876544 14.222222222222223)"/><use xlink:href="#j" transform="matrix(1,0,0,1,396.2226143476024,319.1429859315972) translate(93.39271604938271 35.55555555555556)"/></g><defs><path fill="#333" d="M24-248c120-7 223 5 221 122C244-46 201 0 124 0H24v-248zM76-40c74 7 117-18 117-86 0-67-45-88-117-82v168" id="m"/><path fill="#333" d="M110-194c64 0 96 36 96 99 0 64-35 99-97 99-61 0-95-36-95-99 0-62 34-99 96-99zm-1 164c35 0 45-28 45-65 0-40-10-65-43-65-34 0-45 26-45 65 0 36 10 65 43 65" id="n"/><path fill="#333" d="M135-194c87-1 58 113 63 194h-50c-7-57 23-157-34-157-59 0-34 97-39 157H25l-1-190h47c2 12-1 28 3 38 12-26 28-41 61-42" id="o"/><path fill="#333" d="M185-48c-13 30-37 53-82 52C43 2 14-33 14-96s30-98 90-98c62 0 83 45 84 108H66c0 31 8 55 39 56 18 0 30-7 34-22zm-45-69c5-46-57-63-70-21-2 6-4 13-4 21h74" id="p"/><g id="a"><use transform="matrix(0.04938271604938272,0,0,0.04938271604938272,0,0)" xlink:href="#m"/><use transform="matrix(0.04938271604938272,0,0,0.04938271604938272,12.790123456790125,0)" xlink:href="#n"/><use transform="matrix(0.04938271604938272,0,0,0.04938271604938272,23.60493827160494,0)" xlink:href="#o"/><use transform="matrix(0.04938271604938272,0,0,0.04938271604938272,34.41975308641975,0)" xlink:href="#p"/></g><path fill="#333" d="M30 0v-248h187v28H63v79h144v27H63v87h162V0H30" id="q"/><path fill="#333" d="M177-190C167-65 218 103 67 71c-23-6-38-20-44-43l32-5c15 47 100 32 89-28v-30C133-14 115 1 83 1 29 1 15-40 15-95c0-56 16-97 71-98 29-1 48 16 59 35 1-10 0-23 2-32h30zM94-22c36 0 50-32 50-73 0-42-14-75-50-75-39 0-46 34-46 75s6 73 46 73" id="r"/><path fill="#333" d="M100-194c62-1 85 37 85 99 1 63-27 99-86 99S16-35 15-95c0-66 28-99 85-99zM99-20c44 1 53-31 53-75 0-43-8-75-51-75s-53 32-53 75 10 74 51 75" id="s"/><g id="b"><use transform="matrix(0.06172839506172839,0,0,0.06172839506172839,0,0)" xlink:href="#q"/><use transform="matrix(0.06172839506172839,0,0,0.06172839506172839,14.814814814814813,0)" xlink:href="#r"/><use transform="matrix(0.06172839506172839,0,0,0.06172839506172839,27.160493827160494,0)" xlink:href="#s"/></g><path fill="#333" d="M33 0v-248h34V0H33" id="t"/><path fill="#333" d="M117-194c89-4 53 116 60 194h-32v-121c0-31-8-49-39-48C34-167 62-67 57 0H25l-1-190h30c1 10-1 24 2 32 11-22 29-35 61-36" id="u"/><path fill="#333" d="M135-143c-3-34-86-38-87 0 15 53 115 12 119 90S17 21 10-45l28-5c4 36 97 45 98 0-10-56-113-15-118-90-4-57 82-63 122-42 12 7 21 19 24 35" id="v"/><path fill="#333" d="M59-47c-2 24 18 29 38 22v24C64 9 27 4 27-40v-127H5v-23h24l9-43h21v43h35v23H59v120" id="w"/><path fill="#333" d="M24-231v-30h32v30H24zM24 0v-190h32V0H24" id="x"/><path fill="#333" d="M96-169c-40 0-48 33-48 73s9 75 48 75c24 0 41-14 43-38l32 2c-6 37-31 61-74 61-59 0-76-41-82-99-10-93 101-131 147-64 4 7 5 14 7 22l-32 3c-4-21-16-35-41-35" id="y"/><g id="c"><use transform="matrix(0.06172839506172839,0,0,0.06172839506172839,0,0)" xlink:href="#t"/><use transform="matrix(0.06172839506172839,0,0,0.06172839506172839,6.172839506172839,0)" xlink:href="#u"/><use transform="matrix(0.06172839506172839,0,0,0.06172839506172839,18.51851851851852,0)" xlink:href="#v"/><use transform="matrix(0.06172839506172839,0,0,0.06172839506172839,29.62962962962963,0)" xlink:href="#w"/><use transform="matrix(0.06172839506172839,0,0,0.06172839506172839,35.80246913580247,0)" xlink:href="#x"/><use transform="matrix(0.06172839506172839,0,0,0.06172839506172839,40.67901234567901,0)" xlink:href="#u"/><use transform="matrix(0.06172839506172839,0,0,0.06172839506172839,53.02469135802469,0)" xlink:href="#y"/><use transform="matrix(0.06172839506172839,0,0,0.06172839506172839,64.1358024691358,0)" xlink:href="#w"/></g><path fill="#333" d="M27 0v-27h64v-190l-56 39v-29l58-41h29v221h61V0H27" id="z"/><use transform="matrix(0.06172839506172839,0,0,0.06172839506172839,0,0)" xlink:href="#z" id="d"/><path fill="#333" d="M101-251c82-7 93 87 43 132L82-64C71-53 59-42 53-27h129V0H18c2-99 128-94 128-182 0-28-16-43-45-43s-46 15-49 41l-32-3c6-41 34-60 81-64" id="A"/><use transform="matrix(0.06172839506172839,0,0,0.06172839506172839,0,0)" xlink:href="#A" id="e"/><path fill="#333" d="M190 0L58-211 59 0H30v-248h39L202-35l-2-213h31V0h-41" id="B"/><use transform="matrix(0.06172839506172839,0,0,0.06172839506172839,0,0)" xlink:href="#B" id="f"/><path fill="#333" d="M24 0v-248h52V0H24" id="C"/><path fill="#333" d="M137-138c1-29-70-34-71-4 15 46 118 7 119 86 1 83-164 76-172 9l43-7c4 19 20 25 44 25 33 8 57-30 24-41C81-84 22-81 20-136c-2-80 154-74 161-7" id="D"/><path fill="#333" d="M115-3C79 11 28 4 28-45v-112H4v-33h27l15-45h31v45h36v33H77v99c-1 23 16 31 38 25v30" id="E"/><path fill="#333" d="M25-224v-37h50v37H25zM25 0v-190h50V0H25" id="F"/><path fill="#333" d="M190-63c-7 42-38 67-86 67-59 0-84-38-90-98-12-110 154-137 174-36l-49 2c-2-19-15-32-35-32-30 0-35 28-38 64-6 74 65 87 74 30" id="G"/><g id="g"><use transform="matrix(0.04938271604938272,0,0,0.04938271604938272,0,0)" xlink:href="#C"/><use transform="matrix(0.04938271604938272,0,0,0.04938271604938272,4.938271604938272,0)" xlink:href="#o"/><use transform="matrix(0.04938271604938272,0,0,0.04938271604938272,15.753086419753087,0)" xlink:href="#D"/><use transform="matrix(0.04938271604938272,0,0,0.04938271604938272,25.629629629629633,0)" xlink:href="#E"/><use transform="matrix(0.04938271604938272,0,0,0.04938271604938272,31.506172839506174,0)" xlink:href="#F"/><use transform="matrix(0.04938271604938272,0,0,0.04938271604938272,36.44444444444445,0)" xlink:href="#o"/><use transform="matrix(0.04938271604938272,0,0,0.04938271604938272,47.25925925925927,0)" xlink:href="#G"/><use transform="matrix(0.04938271604938272,0,0,0.04938271604938272,57.135802469135804,0)" xlink:href="#E"/></g><path fill="#333" d="M23 0v-37h61v-169l-59 37v-38l62-41h46v211h57V0H23" id="H"/><use transform="matrix(0.04938271604938272,0,0,0.04938271604938272,0,0)" xlink:href="#H" id="h"/><path fill="#333" d="M67-125c0 53 21 87 73 88 37 1 54-22 65-47l45 17C233-25 199 4 140 4 58 4 20-42 15-125 8-235 124-281 211-232c18 10 29 29 36 50l-46 12c-8-25-30-41-62-41-52 0-71 34-72 86" id="I"/><path fill="#333" d="M88-194c31-1 46 15 58 34l-1-101h50l1 261h-48c-2-10 0-23-3-31C134-8 116 4 84 4 32 4 16-41 15-95c0-56 19-97 73-99zm17 164c33 0 40-30 41-66 1-37-9-64-41-64s-38 30-39 65c0 43 13 65 39 65" id="J"/><g id="i"><use transform="matrix(0.04938271604938272,0,0,0.04938271604938272,0,0)" xlink:href="#I"/><use transform="matrix(0.04938271604938272,0,0,0.04938271604938272,12.790123456790125,0)" xlink:href="#n"/><use transform="matrix(0.04938271604938272,0,0,0.04938271604938272,23.60493827160494,0)" xlink:href="#o"/><use transform="matrix(0.04938271604938272,0,0,0.04938271604938272,34.41975308641975,0)" xlink:href="#J"/><use transform="matrix(0.04938271604938272,0,0,0.04938271604938272,45.23456790123457,0)" xlink:href="#F"/><use transform="matrix(0.04938271604938272,0,0,0.04938271604938272,50.17283950617284,0)" xlink:href="#E"/><use transform="matrix(0.04938271604938272,0,0,0.04938271604938272,56.04938271604939,0)" xlink:href="#F"/><use transform="matrix(0.04938271604938272,0,0,0.04938271604938272,60.98765432098766,0)" xlink:href="#n"/><use transform="matrix(0.04938271604938272,0,0,0.04938271604938272,71.80246913580247,0)" xlink:href="#o"/></g><path fill="#333" d="M140-251c80 0 125 45 125 126S219 4 139 4C58 4 15-44 15-125s44-126 125-126zm-1 214c52 0 73-35 73-88 0-50-21-86-72-86-52 0-73 35-73 86s22 88 72 88" id="K"/><path fill="#333" d="M85 4C-2 5 27-109 22-190h50c7 57-23 150 33 157 60-5 35-97 40-157h50l1 190h-47c-2-12 1-28-3-38-12 25-28 42-61 42" id="L"/><path fill="#333" d="M135-150c-39-12-60 13-60 57V0H25l-1-190h47c2 13-1 29 3 40 6-28 27-53 61-41v41" id="M"/><g id="j"><use transform="matrix(0.04938271604938272,0,0,0.04938271604938272,0,0)" xlink:href="#K"/><use transform="matrix(0.04938271604938272,0,0,0.04938271604938272,13.827160493827162,0)" xlink:href="#G"/><use transform="matrix(0.04938271604938272,0,0,0.04938271604938272,23.703703703703706,0)" xlink:href="#G"/><use transform="matrix(0.04938271604938272,0,0,0.04938271604938272,33.580246913580254,0)" xlink:href="#L"/><use transform="matrix(0.04938271604938272,0,0,0.04938271604938272,44.39506172839507,0)" xlink:href="#M"/><use transform="matrix(0.04938271604938272,0,0,0.04938271604938272,51.30864197530866,0)" xlink:href="#p"/><use transform="matrix(0.04938271604938272,0,0,0.04938271604938272,61.185185185185205,0)" xlink:href="#J"/></g><path fill="#333" d="M175 0L67-191c6 58 2 128 3 191H24v-248h59L193-55c-6-58-2-129-3-193h46V0h-61" id="N"/><use transform="matrix(0.04938271604938272,0,0,0.04938271604938272,0,0)" xlink:href="#N" id="k"/><path fill="#333" d="M182-182c0 78-84 86-111 141h115V0H12c-6-101 99-100 120-180 1-22-12-31-33-32-23 0-32 14-35 34l-49-3c5-45 32-70 84-70 51 0 83 22 83 69" id="O"/><use transform="matrix(0.04938271604938272,0,0,0.04938271604938272,0,0)" xlink:href="#O" id="l"/></defs></g></svg>